# 3ds Max Wavefront OBJ Exporter v0.97b - (c)2007 guruware
# File Created: 11.05.2019 13:39:49

mtllib test.mtl

#
# object Box003
#

v  -1.5324 0.0000 2.3897
v  1.5324 0.0000 2.3897
v  -1.5324 0.0000 -2.3897
v  1.5324 0.0000 -2.3897
v  -1.5324 5.8551 2.3897
v  1.5324 5.8551 2.3897
v  -1.5324 5.8551 -2.3897
v  1.5324 5.8551 -2.3897
# 8 vertices

vn -0.5774 -0.5774 0.5774
vn -0.5774 -0.5774 -0.5774
vn 0.5774 -0.5774 -0.5774
vn 0.5774 -0.5774 0.5774
vn -0.5774 0.5774 0.5774
vn 0.5774 0.5774 0.5774
vn 0.5774 0.5774 -0.5774
vn -0.5774 0.5774 -0.5774
vn -0.5774 -0.5774 0.5774
vn 0.5774 -0.5774 0.5774
vn 0.5774 0.5774 0.5774
vn -0.5774 0.5774 0.5774
vn 0.5774 -0.5774 0.5774
vn 0.5774 -0.5774 -0.5774
vn 0.5774 0.5774 -0.5774
vn 0.5774 0.5774 0.5774
vn 0.5774 -0.5774 -0.5774
vn -0.5774 -0.5774 -0.5774
vn -0.5774 0.5774 -0.5774
vn 0.5774 0.5774 -0.5774
vn -0.5774 -0.5774 -0.5774
vn -0.5774 -0.5774 0.5774
vn -0.5774 0.5774 0.5774
vn -0.5774 0.5774 -0.5774
# 24 vertex normals

vt 1.0000 0.0000 0.0000
vt 1.0000 1.0000 0.0000
vt 0.0000 1.0000 0.0000
vt 0.0000 0.0000 0.0000
# 4 texture coords

o Box003
g Box003
usemtl wire_177148027
s 2
f 1/1/1 3/2/2 4/3/3 2/4/4 
s 4
f 5/4/5 6/1/6 8/2/7 7/3/8 
s 8
f 1/4/9 2/1/10 6/2/11 5/3/12 
s 16
f 2/4/13 4/1/14 8/2/15 6/3/16 
s 32
f 4/4/17 3/1/18 7/2/19 8/3/20 
s 64
f 3/4/21 1/1/22 5/2/23 7/3/24 
# 6 polygons

